<?xml version="1.0" encoding="UTF-8" standalone="no"?>
<svg
   xml:space="preserve"
   width="40"
   height="40"
   style="clip-rule:evenodd;fill-rule:nonzero;image-rendering:optimizeQuality;shape-rendering:geometricPrecision;text-rendering:geometricPrecision"
   viewBox="0 0 375 375"
   version="1.1"
   id="svg11"
   sodipodi:docname="geocapture.svg"
   inkscape:version="1.4.2 (ebf0e940d0, 2025-05-08)"
   xmlns:inkscape="http://www.inkscape.org/namespaces/inkscape"
   xmlns:sodipodi="http://sodipodi.sourceforge.net/DTD/sodipodi-0.dtd"
   xmlns="http://www.w3.org/2000/svg"
   xmlns:svg="http://www.w3.org/2000/svg"><sodipodi:namedview
     id="namedview11"
     pagecolor="#ffffff"
     bordercolor="#666666"
     borderopacity="1.0"
     inkscape:showpageshadow="2"
     inkscape:pageopacity="0.0"
     inkscape:pagecheckerboard="0"
     inkscape:deskcolor="#d1d1d1"
     inkscape:zoom="28.453125"
     inkscape:cx="3.3563976"
     inkscape:cy="19.066447"
     inkscape:window-width="3840"
     inkscape:window-height="2120"
     inkscape:window-x="2160"
     inkscape:window-y="1140"
     inkscape:window-maximized="1"
     inkscape:current-layer="svg11" /><defs
     id="defs6"><linearGradient
       id="a"
       x1="175.573"
       x2="183.427"
       y1="228.285"
       y2="247.965"
       gradientTransform="matrix(1.3692592,0,0,1.3660572,-142.10372,-105.999)"
       gradientUnits="userSpaceOnUse"><stop
         offset="0"
         style="stop-color:#96be0f"
         id="stop1" /><stop
         offset=".302"
         style="stop-color:#a6c515"
         id="stop2" /><stop
         offset="1"
         style="stop-color:#b6cb1b"
         id="stop3" /></linearGradient><linearGradient
       id="b"
       x1="178.933"
       x2="180.067"
       y1="257.56601"
       y2="245.978"
       gradientTransform="matrix(1.3692592,0,0,1.3660572,-142.10372,-105.999)"
       gradientUnits="userSpaceOnUse"><stop
         offset="0"
         style="stop-color:#0a1117"
         id="stop4" /><stop
         offset=".188"
         style="stop-color:#0f2436"
         id="stop5" /><stop
         offset="1"
         style="stop-color:#153854"
         id="stop6" /></linearGradient></defs><desc
     id="desc6">factory icon from the IconExperience.com O-Collection. Copyright by INCORS GmbH (www.incors.com).</desc><g
     style="fill-rule:evenodd;stroke-width:0.399758"
     transform="matrix(1834.1893,0,0,1834.1893,448.48032,127.74576)"
     id="g11"><desc
       id="desc7">0,3</desc><g
       style="fill-rule:evenodd;stroke-width:0.399758"
       transform="matrix(0.00705,0,0,0.00707,-1.408,-1.682)"
       id="g10"><desc
         id="desc8">0,15</desc><path
         d="m 170.5,228.068 h 18 c 3.03,0 5.5,2.47 5.5,5.5 v 14.613 h -29 v -14.613 c 0,-3.03 2.47,-5.5 5.5,-5.5"
         class="fil0"
         style="fill:url(#a);fill-rule:nonzero;stroke-width:0.399758"
         id="path8" /><path
         d="m 194,246.544 v 4.956 c 0,3.03 -2.47,5.5 -5.5,5.5 h -18 a 5.51,5.51 0 0 1 -5.5,-5.5 v -4.956 z"
         class="fil1"
         style="fill:url(#b);stroke-width:0.399758"
         id="path9" /><path
         d="m 182.894,252.44 c -0.176,1.392 -1.02,2.302 -2.433,2.729 -1.02,0.296 -1.775,0.361 -3.88,0.361 h -6.839 V 253 h 7.333 c 2.432,0 2.761,-0.232 2.761,-1.974 v -2.104 h -3.42 c -3.222,0 -3.945,-0.099 -5.293,-0.92 -2.039,-1.218 -3.123,-3.551 -3.123,-6.74 0,-2.565 0.723,-4.834 2.038,-6.313 1.348,-1.546 2.927,-2.04 6.379,-2.04 h 6.608 v 18.07 c 0,0 0.047,0.195 -0.131,1.461 m -3.058,-16.999 h -3.189 c -2.663,0 -3.617,0.362 -4.406,1.612 -0.559,0.887 -0.953,2.663 -0.953,4.208 0,1.579 0.46,3.058 1.183,3.945 0.756,0.889 1.611,1.184 3.617,1.184 h 3.748 z"
         class="fil2"
         style="fill:#ffffff;fill-rule:nonzero;stroke-width:0.399758"
         id="path10" /></g></g></svg>
